<mxfile host="app.diagrams.net" modified="2023-04-30T21:53:40.475Z" agent="Mozilla/5.0 (Macintosh; Intel Mac OS X 10_15_7) AppleWebKit/605.1.15 (KHTML, like Gecko) Version/15.4 Safari/605.1.15" etag="XQ9vNVCisq1s3zxN-lDp" version="21.2.3" type="github">
  <diagram id="jrXY4hO8n29qiqvIHeQG" name="Page-1">
    <mxGraphModel dx="2807" dy="1534" grid="1" gridSize="10" guides="1" tooltips="1" connect="1" arrows="1" fold="1" page="0" pageScale="1" pageWidth="827" pageHeight="1169" math="0" shadow="0">
      <root>
        <mxCell id="0" />
        <mxCell id="1" parent="0" />
        <mxCell id="xgOQFWb6kl7ygXgDytyt-4" value="&amp;nbsp;&amp;nbsp;&lt;b&gt;NUBO11&lt;/b&gt;" style="rounded=0;whiteSpace=wrap;html=1;fillColor=none;verticalAlign=top;align=left;" parent="1" vertex="1">
          <mxGeometry x="-1020" y="-790" width="840" height="760" as="geometry" />
        </mxCell>
        <mxCell id="xgOQFWb6kl7ygXgDytyt-6" value="&lt;b&gt;&amp;nbsp; Team membre 1 Space&lt;/b&gt;" style="rounded=0;whiteSpace=wrap;html=1;verticalAlign=top;align=center;fillColor=none;fontColor=#D86613;strokeColor=#D86613;dashed=1;" parent="1" vertex="1">
          <mxGeometry x="-1000" y="-560" width="800" height="179" as="geometry" />
        </mxCell>
        <mxCell id="xgOQFWb6kl7ygXgDytyt-5" value="&lt;b&gt;&amp;nbsp; Shared Space&lt;/b&gt;" style="rounded=0;whiteSpace=wrap;html=1;verticalAlign=top;align=center;fillColor=none;strokeColor=#147EBA;fontColor=#147EBA;dashed=1;" parent="1" vertex="1">
          <mxGeometry x="-1000" y="-759" width="800" height="179" as="geometry" />
        </mxCell>
        <mxCell id="5G6M97Ru5O6IGqaMy1Rf-24" value="Publication shared network&amp;nbsp;(172.16&lt;b&gt;&lt;u&gt;.0.&lt;/u&gt;&lt;/b&gt;0/24)" style="points=[[0,0],[0.25,0],[0.5,0],[0.75,0],[1,0],[1,0.25],[1,0.5],[1,0.75],[1,1],[0.75,1],[0.5,1],[0.25,1],[0,1],[0,0.75],[0,0.5],[0,0.25]];outlineConnect=0;gradientColor=none;html=1;whiteSpace=wrap;fontSize=12;fontStyle=0;shape=mxgraph.aws4.group;grIcon=mxgraph.aws4.group_security_group;grStroke=0;strokeColor=#248814;fillColor=#E9F3E6;verticalAlign=top;align=left;spacingLeft=30;fontColor=#248814;strokeWidth=6;" parent="1" vertex="1">
          <mxGeometry x="-960" y="-720" width="320" height="120" as="geometry" />
        </mxCell>
        <mxCell id="5G6M97Ru5O6IGqaMy1Rf-25" value="Publication network (172.16&lt;b&gt;&lt;u&gt;.1.&lt;/u&gt;&lt;/b&gt;0/24)" style="points=[[0,0],[0.25,0],[0.5,0],[0.75,0],[1,0],[1,0.25],[1,0.5],[1,0.75],[1,1],[0.75,1],[0.5,1],[0.25,1],[0,1],[0,0.75],[0,0.5],[0,0.25]];outlineConnect=0;gradientColor=none;html=1;whiteSpace=wrap;fontSize=12;fontStyle=0;shape=mxgraph.aws4.group;grIcon=mxgraph.aws4.group_security_group;grStroke=0;strokeColor=#248814;fillColor=#E9F3E6;verticalAlign=top;align=left;spacingLeft=30;fontColor=#248814;dashed=0;" parent="1" vertex="1">
          <mxGeometry x="-965" y="-525" width="320" height="120" as="geometry" />
        </mxCell>
        <mxCell id="5G6M97Ru5O6IGqaMy1Rf-27" value="Administration shared network&amp;nbsp;(172.18&lt;b&gt;&lt;u&gt;.0.&lt;/u&gt;&lt;/b&gt;0/24)" style="points=[[0,0],[0.25,0],[0.5,0],[0.75,0],[1,0],[1,0.25],[1,0.5],[1,0.75],[1,1],[0.75,1],[0.5,1],[0.25,1],[0,1],[0,0.75],[0,0.5],[0,0.25]];outlineConnect=0;gradientColor=none;html=1;whiteSpace=wrap;fontSize=12;fontStyle=0;shape=mxgraph.aws4.group;grIcon=mxgraph.aws4.group_security_group;grStroke=0;strokeColor=#147EBA;fillColor=#E6F2F8;verticalAlign=top;align=left;spacingLeft=30;fontColor=#147EBA;dashed=0;" parent="1" vertex="1">
          <mxGeometry x="-560" y="-721" width="320" height="122" as="geometry" />
        </mxCell>
        <mxCell id="5G6M97Ru5O6IGqaMy1Rf-28" value="Auto Scaling group" style="points=[[0,0],[0.25,0],[0.5,0],[0.75,0],[1,0],[1,0.25],[1,0.5],[1,0.75],[1,1],[0.75,1],[0.5,1],[0.25,1],[0,1],[0,0.75],[0,0.5],[0,0.25]];outlineConnect=0;gradientColor=none;html=1;whiteSpace=wrap;fontSize=12;fontStyle=0;shape=mxgraph.aws4.groupCenter;grIcon=mxgraph.aws4.group_auto_scaling_group;grStroke=1;strokeColor=#D86613;fillColor=none;verticalAlign=top;align=center;fontColor=#D86613;dashed=1;spacingTop=25;" parent="1" vertex="1">
          <mxGeometry x="-1290" y="-530" width="250" height="130" as="geometry" />
        </mxCell>
        <mxCell id="5G6M97Ru5O6IGqaMy1Rf-34" value="Confluence Cluster 1" style="outlineConnect=0;gradientColor=none;fillColor=#D05C17;strokeColor=none;dashed=0;verticalLabelPosition=bottom;verticalAlign=top;align=center;html=1;fontSize=12;fontStyle=0;aspect=fixed;pointerEvents=1;shape=mxgraph.aws4.ecs_service;fontColor=#D05C17;" parent="1" vertex="1">
          <mxGeometry x="-1120.52" y="-411" width="41.03" height="50" as="geometry" />
        </mxCell>
        <mxCell id="5G6M97Ru5O6IGqaMy1Rf-48" value="Elastic IP" style="outlineConnect=0;gradientColor=none;strokeColor=#248814;dashed=0;verticalLabelPosition=bottom;verticalAlign=middle;align=center;html=1;fontSize=12;fontStyle=0;aspect=fixed;pointerEvents=1;shape=mxgraph.aws4.elastic_ip_address;rotation=90;spacingLeft=30;fillColor=#248814;fontColor=#248814;horizontal=0;labelPosition=center;spacingTop=46;" parent="1" vertex="1">
          <mxGeometry x="-1130" y="-626.43" width="38.49" height="16.29" as="geometry" />
        </mxCell>
        <mxCell id="N_9ljJacKE9F2aMwcfvr-1" value="Administration network&amp;nbsp;(172.18&lt;b&gt;&lt;u&gt;.1.&lt;/u&gt;&lt;/b&gt;0/24)" style="points=[[0,0],[0.25,0],[0.5,0],[0.75,0],[1,0],[1,0.25],[1,0.5],[1,0.75],[1,1],[0.75,1],[0.5,1],[0.25,1],[0,1],[0,0.75],[0,0.5],[0,0.25]];outlineConnect=0;gradientColor=none;html=1;whiteSpace=wrap;fontSize=12;fontStyle=0;shape=mxgraph.aws4.group;grIcon=mxgraph.aws4.group_security_group;grStroke=0;strokeColor=#147EBA;fillColor=#E6F2F8;verticalAlign=top;align=left;spacingLeft=30;fontColor=#147EBA;dashed=0;" vertex="1" parent="1">
          <mxGeometry x="-560" y="-527" width="320" height="122" as="geometry" />
        </mxCell>
      </root>
    </mxGraphModel>
  </diagram>
</mxfile>
